<svg aria-hidden="true" style="position: absolute; width: 0; height: 0; overflow: hidden;" version="1.1" xmlns="http://www.w3.org/2000/svg" xmlns:xlink="http://www.w3.org/1999/xlink">
<defs>
<symbol id="icon-youtube-icon" viewBox="0 0 32 32">
<path fill="#fafafa" style="fill: var(--color1, #fafafa)" d="M31.362 8.247c-0.181-0.681-0.537-1.302-1.034-1.802s-1.116-0.86-1.795-1.045c-2.502-0.673-12.502-0.673-12.502-0.673s-10 0-12.502 0.673c-0.68 0.185-1.299 0.546-1.795 1.045s-0.853 1.121-1.034 1.802c-0.669 2.513-0.669 7.753-0.669 7.753s0 5.24 0.669 7.753c0.181 0.681 0.537 1.302 1.034 1.802s1.116 0.86 1.795 1.045c2.502 0.673 12.502 0.673 12.502 0.673s10 0 12.502-0.673c0.68-0.185 1.299-0.546 1.795-1.045s0.853-1.121 1.034-1.802c0.669-2.513 0.669-7.753 0.669-7.753s0-5.24-0.669-7.753z"></path>
<path fill="#214e41" style="fill: var(--color2, #214e41)" d="M12.76 20.758v-9.516l8.364 4.758-8.364 4.758z"></path>
</symbol>
<symbol id="icon-linkedin-icon" viewBox="0 0 32 32">
<path fill="#fff" style="fill: var(--color3, #fff)" d="M29.638 0h-27.276c-0.627 0-1.227 0.249-1.67 0.692s-0.692 1.044-0.692 1.67v27.276c0 0.626 0.249 1.227 0.692 1.67s1.044 0.692 1.67 0.692h27.276c0.626 0 1.227-0.249 1.67-0.692s0.692-1.044 0.692-1.67v-27.276c0-0.627-0.249-1.227-0.692-1.67s-1.044-0.692-1.67-0.692zM9.538 27.26h-4.811v-15.282h4.811v15.282zM7.129 9.86c-0.546-0.003-1.078-0.168-1.531-0.473s-0.804-0.738-1.010-1.243c-0.207-0.505-0.259-1.060-0.15-1.595s0.373-1.026 0.76-1.41c0.387-0.385 0.88-0.646 1.415-0.751s1.090-0.049 1.594 0.161c0.504 0.21 0.934 0.564 1.237 1.018s0.464 0.988 0.463 1.534c0.005 0.365-0.063 0.728-0.201 1.066s-0.343 0.645-0.602 0.903c-0.259 0.258-0.568 0.46-0.907 0.596s-0.702 0.202-1.068 0.194zM27.271 27.273h-4.809v-8.349c0-2.462-1.047-3.222-2.398-3.222-1.427 0-2.827 1.075-2.827 3.284v8.287h-4.811v-15.284h4.627v2.118h0.062c0.465-0.94 2.091-2.547 4.573-2.547 2.684 0 5.585 1.593 5.585 6.26l-0.002 9.453z"></path>
</symbol>
<symbol id="icon-twitter-icon" viewBox="0 0 38 32">
<path fill="#fafafa" style="fill: var(--color1, #fafafa)" d="M11.893 31.364c14.271 0 22.077-11.823 22.077-22.077 0-0.336 0-0.67-0.023-1.003 1.519-1.098 2.829-2.458 3.871-4.016-1.416 0.628-2.918 1.039-4.456 1.221 1.62-0.97 2.832-2.495 3.411-4.292-1.523 0.904-3.189 1.541-4.927 1.883-1.17-1.244-2.717-2.068-4.402-2.344s-3.414 0.011-4.92 0.817c-1.505 0.806-2.704 2.085-3.409 3.64s-0.878 3.299-0.492 4.963c-3.085-0.155-6.103-0.956-8.857-2.353s-5.185-3.357-7.134-5.754c-0.992 1.708-1.296 3.73-0.85 5.654s1.609 3.606 3.252 4.703c-1.235-0.036-2.443-0.369-3.522-0.971v0.098c0 1.791 0.621 3.527 1.755 4.914s2.714 2.338 4.47 2.692c-1.142 0.312-2.341 0.357-3.503 0.133 0.496 1.542 1.461 2.89 2.761 3.856s2.869 1.502 4.488 1.532c-1.609 1.265-3.451 2.199-5.421 2.751s-4.030 0.71-6.062 0.465c3.548 2.277 7.677 3.485 11.893 3.479z"></path>
</symbol>
</defs>
</svg>
